<?xml version="1.0" encoding="utf-8"?>
<!-- Generator: Adobe Illustrator 24.3.0, SVG Export Plug-In . SVG Version: 6.00 Build 0)  -->
<svg version="1.1" id="Ebene_1" xmlns="http://www.w3.org/2000/svg" xmlns:xlink="http://www.w3.org/1999/xlink" x="0px" y="0px"
	 viewBox="0 0 595.3 841.9" style="enable-background:new 0 0 595.3 841.9;" xml:space="preserve">
<style type="text/css">
	.st0{fill:#446F9A;}
	.st1{fill:#9BA0A5;}
	.st2{fill:#C9B793;}
	.st3{fill:#AEBFCC;}
</style>
<g>
	<polygon class="st0" points="219.8,382.4 198.3,382.4 198.3,347.3 233.3,347.3 233.3,350.1 237.3,350.1 237.3,343.3 194.3,343.3 
		194.3,386.4 219.8,386.4 	"/>
	<path class="st0" d="M186.5,335.7v-21.3V293c0-0.1-0.1-0.2-0.2-0.2h-12.6c-0.1,0-0.2,0.1-0.2,0.2v15h-25.1v-15
		c0-0.1-0.1-0.2-0.2-0.2h-12.6c-0.1,0-0.2,0.1-0.2,0.2v21.3v21.3c0,0.1,0.1,0.2,0.2,0.2h12.6c0.1,0,0.2-0.1,0.2-0.2v-15.8h25.1v15.8
		c0,0.1,0.1,0.2,0.2,0.2h12.6C186.4,335.8,186.5,335.8,186.5,335.7"/>
	<path class="st1" d="M194.9,292.7c-0.1,0-0.2,0.1-0.2,0.2v42.6c0,0.1,0.1,0.2,0.2,0.2h12.6c0.1,0,0.2-0.1,0.2-0.2v-31h25v31
		c0,0.1,0.1,0.2,0.2,0.2h12.6c0.1,0,0.2-0.1,0.2-0.2V293c0-0.1-0.1-0.2-0.2-0.2H194.9z"/>
	<g>
		<path class="st1" d="M264.1,338.8v-18.2h3.4l9.6,13.3v-13.3h3.3v18.2h-3.4l-9.6-13.6v13.6H264.1z"/>
		<path class="st1" d="M283.5,329.7c0-6.2,3.1-9.3,9.2-9.3c6,0,9,3.1,9,9.3c0,6.1-3,9.2-9,9.2C286.8,338.9,283.8,335.8,283.5,329.7z
			 M292.7,336c3.7,0,5.5-2.1,5.5-6.4c0-4.2-1.8-6.3-5.5-6.3c-3.8,0-5.7,2.1-5.7,6.3C287,333.8,288.9,336,292.7,336z"/>
		<path class="st1" d="M303.4,320.5h3.4l2,13.1l4.7-13.1h3.3l4.4,12.6l2.1-12.6h3.3l-3.4,18.2H320l-5-14.3l-5.4,14.3h-3.2
			L303.4,320.5z"/>
		<path class="st1" d="M328.4,329.7c0-6.2,3.1-9.3,9.2-9.3c6,0,9,3.1,9,9.3c0,6.1-3,9.2-9,9.2C331.7,338.9,328.6,335.8,328.4,329.7z
			 M337.5,336c3.7,0,5.5-2.1,5.5-6.4c0-4.2-1.8-6.3-5.5-6.3c-3.8,0-5.7,2.1-5.7,6.3C331.9,333.8,333.8,336,337.5,336z"/>
		<path class="st1" d="M361.7,320.5v2.9h-5.2v15.3H353v-15.3h-5.2v-2.9H361.7z"/>
		<path class="st1" d="M363.6,338.8v-18.2h3.4l9.6,13.3v-13.3h3.3v18.2h-3.4l-9.6-13.6v13.6H363.6z"/>
		<path class="st1" d="M382.1,320.5h3.6l5.1,8.8l4.8-8.8h3.5l-6.7,11.9v6.4h-3.4v-6.4L382.1,320.5z"/>
	</g>
	<g>
		<g>
			<path class="st2" d="M264.3,347.8h3.4l2,13.1l4.7-13.1h3.3l4.4,12.6l2.1-12.6h3.3l-3.4,18.2h-3.2l-5-14.3l-5.4,14.3h-3.2
				L264.3,347.8z"/>
			<path class="st2" d="M289.2,356.9c0-6.2,3.1-9.3,9.2-9.3c6,0,9,3.1,9,9.3c0,6.1-3,9.2-9,9.2C292.6,366.1,289.5,363.1,289.2,356.9
				z M298.4,363.2c3.7,0,5.5-2.1,5.5-6.4c0-4.2-1.8-6.3-5.5-6.3c-3.8,0-5.7,2.1-5.7,6.3C292.7,361.1,294.6,363.2,298.4,363.2z"/>
			<path class="st2" d="M310.6,366v-18.2h3.4v7.5h9v-7.5h3.4V366H323v-7.8h-9v7.8H310.6z"/>
			<path class="st2" d="M333.6,347.8v15.3h7.2v2.9h-10.6v-18.2H333.6z"/>
			<path class="st2" d="M344,366v-18.2h3.5l6.2,13.8l6.1-13.8h3.4V366H360v-12.7l-5,12.7h-2.9l-5.1-12.7V366H344z"/>
			<path class="st2" d="M368.8,366h-3.5l7.7-18.2h3.6l7.9,18.2H381l-2.1-5h-6.1l1.2-2.9h3.7l-2.9-6.9L368.8,366z"/>
			<path class="st2" d="M401.4,365.3c-1.6,0.6-3.4,0.9-5.4,0.9c-6.5,0-9.8-3.2-9.8-9.5c0-6,3.3-9,9.8-9c2,0,3.8,0.3,5.4,0.9v3.1
				c-1.6-0.7-3.3-1-5.1-1c-4.4,0-6.6,2-6.6,6.1c0,4.4,2.2,6.6,6.6,6.6c1.8,0,3.5-0.3,5.1-1V365.3z"/>
			<path class="st2" d="M404.6,366v-18.2h3.4v7.5h9v-7.5h3.4V366H417v-7.8h-9v7.8H404.6z"/>
			<path class="st2" d="M436.7,347.8v2.9h-9.1v4.6h8.7v3h-8.7v4.8h9.4v2.9h-12.7v-18.2H436.7z"/>
			<path class="st2" d="M440,366v-18.2h8.3c3.7,0,5.6,1.6,5.6,4.9c0,2.2-1.5,4-4.4,5.5l5.8,7.9h-4.3l-5.5-7.9v-1.5
				c3.2-0.6,4.8-1.8,4.8-3.8c0-1.3-0.8-2-2.3-2h-4.6V366H440z"/>
		</g>
	</g>
	<g>
		<path class="st0" d="M264.1,311.2V293h3.4v7.5h9V293h3.4v18.2h-3.4v-7.8h-9v7.8H264.1z"/>
		<path class="st0" d="M283.2,302.1c0-6.2,3.1-9.3,9.2-9.3c6,0,9,3.1,9,9.3c0,6.1-3,9.2-9,9.2C286.6,311.4,283.5,308.3,283.2,302.1z
			 M292.4,308.4c3.7,0,5.5-2.1,5.5-6.4c0-4.2-1.8-6.3-5.5-6.3c-3.8,0-5.7,2.1-5.7,6.3C286.7,306.3,288.6,308.4,292.4,308.4z"/>
		<path class="st0" d="M319.4,310.5c-1.6,0.6-3.4,0.9-5.4,0.9c-6.5,0-9.8-3.2-9.8-9.5c0-6,3.3-9,9.8-9c2,0,3.8,0.3,5.4,0.9v3.1
			c-1.6-0.7-3.3-1-5.1-1c-4.4,0-6.6,2-6.6,6.1c0,4.4,2.2,6.6,6.6,6.6c1.8,0,3.5-0.3,5.1-1V310.5z"/>
		<path class="st0" d="M322.8,311.2V293h3.4v7.5h9V293h3.4v18.2h-3.4v-7.8h-9v7.8H322.8z"/>
		<path class="st0" d="M342.3,310.5v-3.1c1.8,0.7,3.9,1,6.2,1c2.8,0,4.2-0.9,4.2-2.8c0-1.4-0.9-2-2.6-2h-2.9c-3.7,0-5.6-1.7-5.6-5.1
			c0-3.7,2.7-5.6,8-5.6c2,0,4,0.3,5.8,0.9v3.1c-1.8-0.7-3.8-1-5.8-1c-3.1,0-4.6,0.9-4.6,2.7c0,1.4,0.7,2,2.2,2h2.9c4,0,6,1.7,6,5.1
			c0,3.8-2.5,5.7-7.6,5.7C346.2,311.4,344.2,311.1,342.3,310.5z"/>
		<path class="st0" d="M371.2,293v2.9H366v15.3h-3.4v-15.3h-5.2V293H371.2z"/>
		<path class="st0" d="M372.7,302.1c0-6.2,3.1-9.3,9.2-9.3c6,0,9,3.1,9,9.3c0,6.1-3,9.2-9,9.2C376,311.4,373,308.3,372.7,302.1z
			 M381.9,308.4c3.7,0,5.5-2.1,5.5-6.4c0-4.2-1.8-6.3-5.5-6.3c-3.8,0-5.7,2.1-5.7,6.3C376.2,306.3,378.1,308.4,381.9,308.4z
			 M381,288.1v2.4h-2.7v-2.4H381z M385.3,288.1v2.4h-2.7v-2.4H385.3z"/>
		<path class="st0" d="M408.9,310.4c-1.5,0.6-3.3,1-5.5,1c-6.4,0-9.7-3.2-9.7-9.5c0-6,3.3-9,9.8-9c2,0,3.8,0.3,5.4,0.9v3.1
			c-1.6-0.7-3.3-1-5.1-1c-4.4,0-6.6,2-6.6,6.1c0,4.4,2.1,6.6,6.2,6.6c0.6,0,1.3-0.1,2.1-0.3v-5.3h3.4V310.4z"/>
		<path class="st0" d="M424.8,293v2.9h-9.1v4.6h8.7v3h-8.7v4.8h9.4v2.9h-12.7V293H424.8z"/>
		<path class="st0" d="M428.4,311.2V293h8.3c3.7,0,5.6,1.6,5.6,4.9c0,2.2-1.5,4-4.4,5.5l5.8,7.9h-4.3l-5.6-7.9v-1.5
			c3.2-0.6,4.8-1.8,4.8-3.8c0-1.3-0.8-2-2.3-2h-4.6v15.2H428.4z"/>
	</g>
	<g>
		<g>
			<path class="st3" d="M265.3,385.7v-9.6h4.1c1.8,0,2.7,0.8,2.7,2.3c0,1.2-0.9,2.2-2.7,2.8l3.3,4.5h-1.6l-3-4.3v-0.8
				c1.8-0.3,2.7-1,2.7-2.1c0-0.9-0.5-1.3-1.5-1.3h-2.7v8.5H265.3z"/>
			<path class="st3" d="M280.2,376.1v1h-5v3.2h4.8v1h-4.8v3.3h5.1v1H274v-9.6H280.2z"/>
			<path class="st3" d="M289.4,385.3c-0.8,0.3-1.7,0.4-2.7,0.4c-3.3,0-5-1.7-5-5c0-3.1,1.7-4.7,5-4.7c1,0,1.9,0.1,2.7,0.4v1.1
				c-0.8-0.3-1.7-0.5-2.5-0.5c-2.6,0-3.9,1.2-3.9,3.7c0,2.7,1.3,4,3.9,4c0.9,0,1.7-0.2,2.5-0.5V385.3z"/>
			<path class="st3" d="M291.5,385.7v-9.6h1.2v4.2h5.7v-4.2h1.2v9.6h-1.2v-4.3h-5.7v4.3H291.5z"/>
			<path class="st3" d="M308.3,376.1v1h-3v8.6h-1.2v-8.6h-3v-1H308.3z"/>
			<path class="st3" d="M309.7,385.3v-1.1c1,0.4,2.1,0.5,3.3,0.5c1.6,0,2.5-0.6,2.5-1.8c0-1-0.6-1.5-1.8-1.5h-1.2c-2,0-3-0.9-3-2.6
				c0-1.8,1.3-2.7,3.8-2.7c1.1,0,2.2,0.1,3.1,0.4v1.1c-1-0.4-2-0.5-3.1-0.5c-1.7,0-2.6,0.6-2.6,1.7c0,1,0.6,1.5,1.8,1.5h1.2
				c2,0,3.1,0.9,3.1,2.6c0,1.9-1.2,2.8-3.7,2.8C311.8,385.7,310.7,385.6,309.7,385.3z"/>
			<path class="st3" d="M318.8,385.7h-1.3l4.1-9.6h1.4l4.1,9.6h-1.4l-1.2-3h-3.2l0.3-1h2.4l-1.8-4.3L318.8,385.7z"/>
			<path class="st3" d="M328.3,385.7v-9.6h1.2l5.9,7.7v-7.7h1.2v9.6h-1.2l-5.9-7.8v7.8H328.3z"/>
			<path class="st3" d="M338,376.1h1.2l1.3,8.3l2.7-8.3h1.2l2.9,8.3l1.5-8.3h1.1l-1.8,9.6h-1.7l-2.7-8l-2.6,8h-1.7L338,376.1z"/>
			<path class="st3" d="M351.8,385.7h-1.3l4.1-9.6h1.4l4.1,9.6h-1.4l-1.2-3h-3.2l0.3-1h2.4l-1.8-4.3L351.8,385.7z M354.7,373.6v1.1
				h-1.2v-1.1H354.7z M357.2,373.6v1.1h-1.2v-1.1H357.2z"/>
			<path class="st3" d="M362.6,376.1v8.6h5v1h-6.2v-9.6H362.6z"/>
			<path class="st3" d="M373.5,376.1v1h-3v8.6h-1.2v-8.6h-3v-1H373.5z"/>
			<path class="st3" d="M381.3,376.1v1h-5v3.2h4.8v1h-4.8v3.3h5.1v1H375v-9.6H381.3z"/>
		</g>
	</g>
	<path class="st2" d="M135.4,386.4c0,0.1,0.1,0.2,0.2,0.2h50.6c0.1,0,0.2-0.1,0.2-0.2v-42.7c0-0.1-0.1-0.2-0.2-0.2h-12.6
		c-0.1,0-0.2,0.1-0.2,0.2v31h-6.1v-11c0-0.1-0.1-0.2-0.2-0.2h-12.6c-0.1,0-0.2,0.1-0.2,0.2v11h-6v-31c0-0.1-0.1-0.2-0.2-0.2h-12.6
		c-0.1,0-0.2,0.1-0.2,0.2V386.4z"/>
	<g>
		<path class="st1" d="M219.3,374v-15.2h-5c-1.6,0-2.4,0.7-2.4,2c0,2,1.7,3.2,5.2,3.8v1.5l-6,7.9h-4.6l6.2-7.9
			c-3.1-1.4-4.7-3.3-4.7-5.5c0-3.3,2-4.9,6-4.9h8.9V374H219.3z"/>
	</g>
	<g>
		<path class="st0" d="M229.2,374.2h-3.5l7.7-18.2h3.6l7.9,18.2h-3.6l-2.1-5h-6.1l1.2-2.9h3.7l-2.9-6.9L229.2,374.2z"/>
	</g>
	<g>
		<g>
			<g>
				<g>
					<path class="st2" d="M245.1,378.2v2.9h-16.2v4.6h8.7v3h-8.7v4.8h11.8v2.9h-15.1v-18.2H245.1z"/>
				</g>
			</g>
		</g>
	</g>
</g>
</svg>
