<svg width="219" height="67" viewBox="0 0 219 67" fill="none" xmlns="http://www.w3.org/2000/svg">
<path d="M218.5 0H0V66.14H218.5V0Z" fill="#0C71C3"/>
<path d="M173.52 49.27H165.92V41.54H167.72V47.93H172.09V45.72H173.52V47.93V49.27ZM59.52 49.27V41.54H61.16V44.54H66.25V41.54H67.89V49.27H66.28V46H61.19V49.31L59.52 49.27ZM42.34 49.27L46.27 41.53H47.83L51.83 49.27H50L49.16 47.58H44.79L44 49.28L42.34 49.27ZM45.45 46.18H48.5L47 43L45.45 46.18ZM181.66 49.27V41.55H189.56V42.88H183.45V44.6H187.02V45.92H183.45V47.82H189.64V49.28L181.66 49.27ZM150.02 41.53V47.81H155.16V41.54H157V47.45C157.063 47.9657 156.923 48.4857 156.61 48.9C156.164 49.2114 155.62 49.35 155.08 49.29H150.18C149.643 49.3503 149.102 49.2116 148.66 48.9C148.343 48.4871 148.2 47.967 148.26 47.45V41.54L150.02 41.53ZM130 49.27V41.54H131.79V44.54H137.41V41.54H139.23V49.27H137.41V46H131.79V49.32L130 49.27ZM119 42.93H114.14V47.81H119V46.15L120.8 46.53V47.44C120.863 47.9603 120.72 48.4846 120.4 48.9C119.955 49.2031 119.416 49.3378 118.88 49.28H114.25C113.714 49.3395 113.175 49.2047 112.73 48.9C112.411 48.4846 112.267 47.9603 112.33 47.44V43.38C112.27 42.863 112.413 42.3429 112.73 41.93C113.171 41.6167 113.713 41.4778 114.25 41.54H118.88C119.417 41.4797 119.958 41.6185 120.4 41.93C120.717 42.3429 120.86 42.863 120.8 43.38V44.11L119 44.39V42.93ZM101.52 42.93H96.49V44.59H101.3C101.844 44.5284 102.391 44.6671 102.84 44.98C103.151 45.3917 103.291 45.9077 103.23 46.42V47.48C103.291 47.9923 103.151 48.5083 102.84 48.92C102.388 49.2245 101.842 49.3591 101.3 49.3H96.54C95.9943 49.3503 95.4485 49.205 95 48.89C94.6856 48.4797 94.5423 47.9637 94.6 47.45V47.24L96.18 46.92V47.81H101.66V46.06H96.84C96.2993 46.1238 95.7542 45.9848 95.31 45.67C94.9956 45.2597 94.8523 44.7437 94.91 44.23V43.38C94.8523 42.8664 94.9956 42.3503 95.31 41.94C95.756 41.6296 96.3007 41.4943 96.84 41.56H101.21C101.738 41.505 102.268 41.6359 102.71 41.93C102.865 42.1082 102.982 42.3166 103.052 42.5421C103.123 42.7675 103.146 43.0052 103.12 43.24V43.4L101.54 43.78L101.52 42.93ZM76.92 49.26V41.54H83.53C84.0053 41.4963 84.4806 41.624 84.87 41.9C85.0173 42.0507 85.1302 42.2316 85.201 42.4301C85.2718 42.6286 85.2987 42.8401 85.28 43.05V44.86C85.2979 45.0684 85.2706 45.2781 85.1998 45.4749C85.129 45.6717 85.0165 45.8508 84.87 46C84.4806 46.2761 84.0053 46.4038 83.53 46.36H82.53L86.1 49.26H83.51L80.4 46.36H78.69V49.26H76.92ZM82.73 42.89H78.73V45H82.73C82.9517 45.0244 83.1755 44.979 83.37 44.87C83.4361 44.8101 83.4869 44.7353 83.5182 44.6518C83.5495 44.5683 83.5604 44.4786 83.55 44.39V43.46C83.5588 43.3731 83.5471 43.2853 83.5158 43.2037C83.4846 43.122 83.4346 43.0489 83.37 42.99C83.1755 42.881 82.9517 42.8356 82.73 42.86V42.89ZM30.73 49.09V46.21H33.97V44.81H30.7V42.81H36.7V41.43H28.91V49.12L30.73 49.09ZM150.28 17H164.77V21.09H155.69V24.15H164.15V28.1H155.69V31.89H165.05V36.28H150.28V17ZM28.91 36.25H42.83V31.69H34.33V17H28.91V36.25ZM175.5 36.25V28.45H176.07C176.628 28.4422 177.176 28.5949 177.65 28.89C178.138 29.2976 178.536 29.8015 178.82 30.37L182.27 36.25H189.61L186.48 30.67C186.211 30.2455 185.903 29.8471 185.56 29.48C185.264 29.1112 184.929 28.7759 184.56 28.48C184.03 28.1717 183.462 27.9331 182.87 27.77C183.66 27.6307 184.425 27.3745 185.14 27.01C185.952 26.5586 186.639 25.9126 187.14 25.13C187.647 24.3002 187.904 23.342 187.88 22.37C187.907 21.2472 187.554 20.1482 186.88 19.25C186.241 18.4001 185.342 17.7821 184.32 17.49C182.815 17.1281 181.267 16.97 179.72 17.02H169V36.23L175.5 36.25ZM175.5 20.91H178.32C179.152 20.8312 179.989 21.0055 180.72 21.41C180.931 21.5812 181.098 21.8002 181.208 22.0488C181.317 22.2975 181.366 22.5687 181.35 22.84C181.356 23.2464 181.214 23.641 180.95 23.95C180.695 24.2585 180.342 24.4702 179.95 24.55C179.392 24.6864 178.823 24.7734 178.25 24.81H175.5V20.91ZM139.61 28.75C139.631 29.211 139.553 29.6711 139.381 30.0991C139.208 30.5271 138.945 30.9128 138.61 31.23C137.851 31.798 136.928 32.105 135.98 32.105C135.032 32.105 134.109 31.798 133.35 31.23C133.029 30.9075 132.779 30.5208 132.617 30.0952C132.455 29.6696 132.384 29.2147 132.41 28.76V17H126V28.45C126.029 29.558 126.232 30.6546 126.6 31.7C126.891 32.5324 127.362 33.2904 127.98 33.92C128.613 34.6082 129.369 35.1713 130.21 35.58C131.16 36.0049 132.174 36.2686 133.21 36.36C134.319 36.4858 135.434 36.5526 136.55 36.56C138.092 36.5924 139.629 36.3728 141.1 35.91C142.071 35.5739 142.958 35.0315 143.7 34.32C144.508 33.5909 145.134 32.6836 145.53 31.67C145.922 30.6421 146.119 29.5501 146.11 28.45V17H139.61V28.75ZM117.8 36.25H124.6L116.68 17H109.56L101.67 36.26H108.32L109.37 33.08H116.74L117.8 36.25ZM110.8 28.9L113.1 21.98L115.4 28.9H110.8ZM81.3 36.25H90.96C92.267 36.2338 93.5669 36.0558 94.83 35.72C95.9148 35.4512 96.9195 34.9266 97.76 34.19C98.6801 33.4168 99.4091 32.4414 99.89 31.34C100.47 29.8124 100.732 28.1825 100.66 26.55C100.669 25.2847 100.494 24.0249 100.14 22.81C99.8143 21.673 99.2482 20.6193 98.48 19.72C97.6843 18.8298 96.6863 18.1439 95.57 17.72C94.0792 17.1895 92.5015 16.9452 90.92 17H81.26L81.3 36.25ZM89.4 21.39C90.0421 21.3282 90.69 21.3964 91.3051 21.5905C91.9202 21.7847 92.4898 22.1008 92.98 22.52C93.7 23.27 94.06 24.67 94.06 26.7C94.108 27.8237 93.9313 28.9456 93.54 30C93.2799 30.6248 92.8045 31.1357 92.2 31.44C91.2832 31.7789 90.3055 31.9219 89.33 31.86H87.76V21.37L89.4 21.39ZM57 36.26H63.1V25.71L71 36.26H77.1V17H71V27.7L63.08 17H57V36.26ZM46.37 17H52.86V36.23H46.37V17Z" fill="white"/>
</svg>
