<?xml version="1.0" encoding="utf-8"?>
<!-- Generator: Adobe Illustrator 21.1.0, SVG Export Plug-In . SVG Version: 6.00 Build 0)  -->
<svg version="1.1" id="Ebene_1" xmlns="http://www.w3.org/2000/svg" xmlns:xlink="http://www.w3.org/1999/xlink" x="0px" y="0px"
	 viewBox="0 0 178.6 48" style="enable-background:new 0 0 178.6 48;" xml:space="preserve">
<style type="text/css">
	.st0{fill:#314EA3;}
	.st1{fill:#FFFFFF;}
	.st2{fill:#FBF315;}
</style>
<g>
	<polyline class="st0" points="178.6,0.1 178.6,48 48,48 48,0.1 178.6,0.1 	"/>
	<path class="st1" d="M79.6,6.1c-2.9-1.2-5.8-1.9-8.9-1.9c-5.3,0-10.6,2.3-14.4,6.1c-3.6,3.7-5.5,8.6-5.5,13.8
		c0,5.6,1.9,10.5,6.1,14.3c3.9,3.5,8.9,5.5,14.2,5.5c3.1,0,5.4-0.7,8.6-1.7V30.4c-2.1,2.4-5.2,4-8.5,4c-6.1,0-10.2-4.3-10.2-10.3
		c0-5.8,4.1-10.5,10.1-10.5c3.4,0,6.6,1.4,8.6,4.1L79.6,6.1"/>
	<polyline class="st1" points="94,5.2 84.2,5.2 84.2,42.9 105.8,42.9 105.8,34.6 94,34.6 94,5.2 	"/>
	<path class="st1" d="M130.9,5.2V25c0,4.9-0.3,10.3-6.7,10.3c-6.3,0-6.6-5.4-6.6-10.3V5.2h-9.8v21.2c0,4.8,0.2,9.6,4,13.3
		c3.1,3.1,8.1,4.2,12.5,4.2s9.3-1.1,12.5-4.2c3.8-3.7,4-8.5,4-13.3V5.2H130.9"/>
	<path class="st1" d="M154.7,12.7h0.7c2.7,0,5.7,0.2,5.7,3.7c0,3.2-2.7,3.7-5.3,3.7h-1.1V12.7L154.7,12.7z M160,42.9
		c6.9,0,13.7-2.6,13.7-10.5c0-5.2-2.3-8.9-7.7-9.6v-0.1c3.1-1.6,4.1-4.3,4.1-7.7c0-7.2-4.5-9.8-11.2-9.8h-14v37.8L160,42.9L160,42.9
		z M154.7,27.3h1c3.2,0,8.1-0.4,8.1,4.1c0,4.1-4.9,4-7.8,4h-1.3V27.3"/>
</g>
<g>
	<polyline points="48,48 0,48 0,0 48,0 48,48 	"/>
	<polyline class="st2" points="1.4,46.6 1.4,1.3 46.6,1.3 46.6,46.6 1.4,46.6 	"/>
	<path d="M24,29.8l14.4,14.4l5.6-5.6L29.6,24.1l2.8-2.8v-5.6l2-2v4.7l2,1.9l7-7l1.9,1.9c0-1.2-0.4-5.4-3.7-8.7
		c-3.8-3.7-7.5-1.5-8.8-0.2L26,13l1.7,1.7L24,18.5l-3.8-3.7l1.7-1.7l-6.8-6.8C13.8,4.9,10,2.8,6.3,6.4c-3.4,3.3-3.6,7.4-3.6,8.7
		l1.8-1.9l7,7l2-2v-4.6l2,2v5.6l2.8,2.8L4,38.4L9.7,44L24,29.8"/>
</g>
</svg>
